# xmcd
#
# Track frame offsets: 
#        150
#        13565
#        26476
#        39717
#        52917
#        67415
#        78104
#        91954
#        104280
#        115914
#        124439
#        134387
#        145636
#        156169
#
# Disc length: 2186 seconds
#
# Revision: 0
# Processed by: cddbd v1.5.2PL0 Copyright (c) Steve Scherf et al.
# Submitted via: ExactAudioCopyFreeDBPlugin 1.0
#
DISCID=ba08880e
DTITLE=Eric Freeman - Rattlesnakin' Daddy
DYEAR=1900
DGENRE=Blues
TTITLE0=Eric's Cat
TTITLE1=Homesick and Lonesome
TTITLE2=Casey Jones
TTITLE3=Rattlesnakin' Daddy
TTITLE4=Crow Jane
TTITLE5=Eric's Good Time Rag
TTITLE6=Remembering Blind Boy Fuller
TTITLE7=Pig Meat Today
TTITLE8=No Cookin' Woman
TTITLE9=Drinking and Druggin'
TTITLE10=Brown Shoe Shuffle
TTITLE11=Will the Circle Be Unbroken
TTITLE12=Eric's Kansas City Blues
TTITLE13=Eric's Thank You
EXTD=
EXTT0=
EXTT1=
EXTT2=
EXTT3=
EXTT4=
EXTT5=
EXTT6=
EXTT7=
EXTT8=
EXTT9=
EXTT10=
EXTT11=
EXTT12=
EXTT13=
PLAYORDER=
